<?xml version="1.0" encoding="UTF-8"?>
<svg id="Layer_1" data-name="Layer 1" xmlns="http://www.w3.org/2000/svg" version="1.1" viewBox="0 0 1170 316">
  <defs>
    <style>
      .cls-1 {
        fill: #c1513b;
      }

      .cls-1, .cls-2, .cls-3, .cls-4, .cls-5, .cls-6 {
        stroke-width: 0px;
      }

      .cls-7 {
        fill: #000;
        font-family: MyriadPro-Regular, 'Myriad Pro';
        font-size: 39.03px;
      }

      .cls-7, .cls-8 {
        display: none;
      }

      .cls-2 {
        fill: #28abe3;
      }

      .cls-3 {
        fill: #10aaff;
      }

      .cls-4 {
        fill: #ed7626;
      }

      .cls-5 {
        fill: #fff;
      }

      .cls-6 {
        fill: #2c6ea8;
      }
    </style>
  </defs>
  <rect class="cls-3" x="317" y="176.64" width="790" height="47" rx="14" ry="14"/>
  <g>
    <path class="cls-5" d="M332.84,212.65v-25.92h11.22c2.32,0,4.32.38,6,1.13s2.97,1.83,3.89,3.24c.91,1.41,1.37,3.07,1.37,5s-.46,3.62-1.37,5.02c-.91,1.39-2.21,2.48-3.89,3.24-1.68.77-3.68,1.15-6,1.15h-7.92l2.74-2.7v9.85h-6.04ZM338.87,203.47l-2.74-2.85h7.59c1.83,0,3.21-.39,4.15-1.18.94-.79,1.41-1.9,1.41-3.33s-.47-2.54-1.41-3.31c-.94-.78-2.32-1.17-4.15-1.17h-7.59l2.74-2.85v14.7Z"/>
    <path class="cls-5" d="M359.57,212.65v-25.92h6.04v21.03h12.92v4.89h-18.96Z"/>
    <path class="cls-5" d="M393.12,213.1c-3.68,0-6.55-1.02-8.63-3.07-2.07-2.05-3.11-4.99-3.11-8.81v-14.48h6.04v14.33c0,2.44.51,4.22,1.52,5.31,1.01,1.1,2.42,1.65,4.22,1.65s3.25-.55,4.26-1.65c1.01-1.1,1.52-2.87,1.52-5.31v-14.33h5.89v14.48c0,3.83-1.04,6.76-3.11,8.81-2.07,2.05-4.94,3.07-8.59,3.07Z"/>
    <path class="cls-5" d="M410.79,212.65v-25.92h4.96l11.04,18.29h-2.63l10.81-18.29h5v25.92h-5.59l-.07-17.29h1.11l-8.74,14.52h-2.67l-8.85-14.52h1.22v17.29h-5.59Z"/>
    <path class="cls-5" d="M446.15,212.65v-25.92h12.66c3.26,0,5.71.62,7.35,1.85,1.64,1.24,2.46,2.86,2.46,4.89,0,1.36-.33,2.54-1,3.54s-1.59,1.77-2.76,2.31c-1.17.54-2.5.81-3.98.81l.7-1.56c1.63,0,3.07.27,4.31.82,1.25.54,2.23,1.33,2.94,2.37.72,1.04,1.07,2.31,1.07,3.81,0,2.22-.88,3.96-2.63,5.2-1.75,1.25-4.33,1.87-7.74,1.87h-13.4ZM452.11,208.13h7.04c1.53,0,2.7-.26,3.52-.78.81-.52,1.22-1.32,1.22-2.41s-.41-1.93-1.22-2.44c-.81-.52-1.99-.78-3.52-.78h-7.48v-4.37h6.41c1.46,0,2.57-.25,3.35-.76s1.17-1.28,1.17-2.31-.39-1.8-1.17-2.3-1.9-.74-3.35-.74h-5.96v16.89Z"/>
    <path class="cls-5" d="M474.48,212.65v-25.92h6.04v25.92h-6.04Z"/>
    <path class="cls-5" d="M486.62,212.65v-25.92h4.96l15.29,18.66h-2.41v-18.66h5.92v25.92h-4.96l-15.29-18.66h2.41v18.66h-5.92Z"/>
    <path class="cls-5" d="M529.06,213.1c-2.05,0-3.94-.33-5.67-.98-1.73-.65-3.22-1.59-4.48-2.8-1.26-1.21-2.24-2.63-2.94-4.26-.7-1.63-1.06-3.42-1.06-5.37s.35-3.74,1.06-5.37c.7-1.63,1.7-3.05,2.98-4.26,1.28-1.21,2.79-2.14,4.52-2.8,1.73-.65,3.63-.98,5.7-.98,2.3,0,4.36.38,6.2,1.15,1.84.77,3.39,1.88,4.65,3.33l-3.81,3.56c-.96-1.01-2-1.76-3.11-2.24-1.11-.48-2.33-.72-3.67-.72-1.23,0-2.37.2-3.41.61-1.04.41-1.93.98-2.68,1.72-.75.74-1.33,1.62-1.74,2.63-.41,1.01-.61,2.14-.61,3.37s.2,2.29.61,3.31c.41,1.02.99,1.91,1.74,2.65.75.74,1.64,1.32,2.67,1.74,1.02.42,2.15.63,3.39.63s2.34-.2,3.46-.59c1.12-.39,2.22-1.05,3.28-1.96l3.41,4.33c-1.43,1.09-3.07,1.91-4.92,2.46-1.85.55-3.7.83-5.55.83ZM534.06,209.02v-9.74h5.48v10.52l-5.48-.78Z"/>
    <path class="cls-5" d="M555.57,212.65v-25.92h11.22c2.32,0,4.32.38,6,1.13,1.68.75,2.97,1.83,3.89,3.24.91,1.41,1.37,3.07,1.37,5s-.46,3.62-1.37,5.02c-.91,1.39-2.21,2.46-3.89,3.18-1.68.73-3.68,1.09-6,1.09h-7.92l2.74-2.59v9.85h-6.04ZM561.61,203.47l-2.74-2.85h7.59c1.83,0,3.21-.39,4.15-1.18.94-.79,1.41-1.9,1.41-3.33s-.47-2.54-1.41-3.31c-.94-.78-2.32-1.17-4.15-1.17h-7.59l2.74-2.85v14.7ZM572.09,212.65l-6.52-9.41h6.44l6.52,9.41h-6.44Z"/>
    <path class="cls-5" d="M588.75,207.84h14.11v4.81h-20.07v-25.92h19.59v4.81h-13.63v16.29ZM588.31,197.14h12.48v4.7h-12.48v-4.7Z"/>
    <path class="cls-5" d="M607.64,212.65v-25.92h11.22c2.32,0,4.32.38,6,1.13,1.68.75,2.97,1.83,3.89,3.24s1.37,3.07,1.37,5-.46,3.62-1.37,5.02-2.21,2.48-3.89,3.24c-1.68.77-3.68,1.15-6,1.15h-7.92l2.74-2.7v9.85h-6.04ZM613.68,203.47l-2.74-2.85h7.59c1.83,0,3.21-.39,4.15-1.18.94-.79,1.41-1.9,1.41-3.33s-.47-2.54-1.41-3.31c-.94-.78-2.32-1.17-4.15-1.17h-7.59l2.74-2.85v14.7Z"/>
    <path class="cls-5" d="M629.67,212.65l11.52-25.92h5.92l11.63,25.92h-6.3l-9.52-22.88h2.41l-9.52,22.88h-6.15ZM635.49,207.1l1.52-4.55h13.41l1.55,4.55h-16.48Z"/>
    <path class="cls-5" d="M661.45,212.65v-25.92h6.04v25.92h-6.04Z"/>
    <path class="cls-5" d="M673.59,212.65v-25.92h11.22c2.32,0,4.32.38,6,1.13,1.68.75,2.97,1.83,3.89,3.24.91,1.41,1.37,3.07,1.37,5s-.46,3.62-1.37,5.02c-.91,1.39-2.21,2.46-3.89,3.18-1.68.73-3.68,1.09-6,1.09h-7.92l2.74-2.59v9.85h-6.04ZM679.63,203.47l-2.74-2.85h7.59c1.83,0,3.21-.39,4.15-1.18.94-.79,1.41-1.9,1.41-3.33s-.47-2.54-1.41-3.31c-.94-.78-2.32-1.17-4.15-1.17h-7.59l2.74-2.85v14.7ZM690.11,212.65l-6.52-9.41h6.44l6.52,9.41h-6.44Z"/>
    <path class="cls-5" d="M707.88,212.65l11.52-25.92h5.92l11.63,25.92h-6.3l-9.52-22.88h2.41l-9.52,22.88h-6.15ZM713.7,207.1l1.52-4.55h13.41l1.56,4.55h-16.48Z"/>
    <path class="cls-5" d="M739.65,212.65v-25.92h4.96l15.29,18.66h-2.41v-18.66h5.93v25.92h-4.96l-15.29-18.66h2.41v18.66h-5.92Z"/>
    <path class="cls-5" d="M769.57,212.65v-25.92h11.78c2.81,0,5.3.54,7.44,1.61,2.15,1.07,3.83,2.58,5.04,4.52,1.21,1.94,1.81,4.22,1.81,6.83s-.61,4.89-1.81,6.83c-1.21,1.94-2.89,3.44-5.04,4.52-2.15,1.07-4.63,1.61-7.44,1.61h-11.78ZM775.61,207.76h5.44c1.73,0,3.23-.33,4.5-.98s2.26-1.59,2.96-2.81c.7-1.22,1.05-2.65,1.05-4.28s-.35-3.09-1.05-4.3c-.7-1.21-1.69-2.14-2.96-2.8-1.27-.65-2.77-.98-4.5-.98h-5.44v16.14Z"/>
    <path class="cls-5" d="M810.64,212.65v-25.92h6.04v25.92h-6.04Z"/>
    <path class="cls-5" d="M822.79,212.65v-25.92h4.96l15.29,18.66h-2.41v-18.66h5.92v25.92h-4.96l-15.29-18.66h2.41v18.66h-5.93Z"/>
    <path class="cls-5" d="M861.26,213.1c-2.07,0-4.07-.28-5.98-.83-1.91-.56-3.45-1.28-4.61-2.17l2.04-4.52c1.09.79,2.39,1.44,3.92,1.94s3.07.76,4.63.76c1.19,0,2.14-.12,2.87-.37.73-.25,1.26-.57,1.61-.98s.52-.88.52-1.43c0-.69-.27-1.24-.82-1.65-.54-.41-1.26-.74-2.17-1-.9-.26-1.88-.51-2.94-.74s-2.13-.52-3.2-.85c-1.07-.33-2.06-.78-2.96-1.33-.9-.55-1.62-1.28-2.15-2.18-.53-.9-.8-2.03-.8-3.39,0-1.48.39-2.83,1.19-4.06.79-1.22,1.99-2.2,3.61-2.92s3.65-1.09,6.09-1.09c1.63,0,3.24.2,4.83.59,1.59.4,2.98.96,4.17,1.7l-1.89,4.52c-1.16-.67-2.36-1.17-3.59-1.5-1.23-.33-2.42-.5-3.55-.5s-2.13.13-2.85.39c-.72.26-1.24.61-1.57,1.06s-.5.94-.5,1.48c0,.69.27,1.25.82,1.67.54.42,1.26.75,2.15.98s1.88.47,2.96.7c1.09.24,2.16.52,3.22.87s2.04.78,2.93,1.31c.89.53,1.61,1.25,2.17,2.15s.83,2.02.83,3.35c0,1.46-.4,2.79-1.2,4-.8,1.21-2.02,2.18-3.65,2.92-1.63.74-3.67,1.11-6.11,1.11Z"/>
    <path class="cls-5" d="M881.33,212.65v-21.03h-8.29v-4.89h22.59v4.89h-8.29v21.03h-6Z"/>
    <path class="cls-5" d="M894.14,212.65l11.52-25.92h5.92l11.63,25.92h-6.3l-9.52-22.88h2.41l-9.52,22.88h-6.15ZM899.96,207.1l1.52-4.55h13.41l1.55,4.55h-16.48Z"/>
    <path class="cls-5" d="M925.92,212.65v-25.92h6.04v21.03h12.92v4.89h-18.96Z"/>
    <path class="cls-5" d="M948.28,212.65v-25.92h6.04v21.03h12.92v4.89h-18.96Z"/>
    <path class="cls-5" d="M967.39,212.65l11.52-25.92h5.92l11.63,25.92h-6.29l-9.52-22.88h2.41l-9.52,22.88h-6.15ZM973.21,207.1l1.52-4.55h13.4l1.55,4.55h-16.48Z"/>
    <path class="cls-5" d="M1003.24,212.65v-21.03h-8.29v-4.89h22.59v4.89h-8.29v21.03h-6Z"/>
    <path class="cls-5" d="M1020.75,212.65v-25.92h6.04v25.92h-6.04Z"/>
    <path class="cls-5" d="M1045.49,213.1c-2.05,0-3.94-.33-5.67-1s-3.23-1.6-4.52-2.81c-1.28-1.21-2.28-2.63-2.98-4.26-.7-1.63-1.05-3.41-1.05-5.33s.35-3.73,1.05-5.35c.7-1.62,1.7-3.03,2.98-4.24,1.28-1.21,2.78-2.15,4.5-2.81s3.6-1,5.65-1,3.93.33,5.65.98c1.71.65,3.21,1.59,4.5,2.8,1.28,1.21,2.28,2.63,2.98,4.26.7,1.63,1.05,3.42,1.05,5.37s-.35,3.71-1.05,5.35c-.7,1.64-1.7,3.07-2.98,4.28-1.28,1.21-2.78,2.14-4.5,2.8-1.72.65-3.59.98-5.61.98ZM1045.45,208.02c1.16,0,2.23-.2,3.2-.61s1.83-.99,2.57-1.74c.74-.75,1.31-1.63,1.72-2.63.41-1,.61-2.12.61-3.35s-.21-2.35-.61-3.35c-.41-1-.98-1.88-1.72-2.63-.74-.75-1.6-1.33-2.57-1.74s-2.04-.61-3.2-.61-2.23.2-3.22.61c-.99.41-1.85.99-2.57,1.74s-1.29,1.63-1.7,2.63c-.41,1-.61,2.12-.61,3.35s.2,2.35.61,3.35c.41,1,.97,1.88,1.7,2.63s1.59,1.33,2.57,1.74c.99.41,2.06.61,3.22.61Z"/>
    <path class="cls-5" d="M1064.15,212.65v-25.92h4.96l15.29,18.66h-2.41v-18.66h5.92v25.92h-4.96l-15.29-18.66h2.41v18.66h-5.93Z"/>
  </g>
  <g class="cls-8">
    <path class="cls-6" d="M146.66,44.63c16.73-7.82,36.59-6.79,53.9-1.23,0,.51,0,1.53,0,2.04-17.68-4.75-36.01-2.63-53.91-.81Z"/>
    <path class="cls-6" d="M163.29,49.18c21.32-1.69,43.6,1.25,62.99,10.55,25.09,21.87,31.75,61.36,16.15,90.64-14.51,29.13-49.17,47.09-81.26,40.53-20.14-3.19-38.53-15.37-49.96-32.17-18.23-25.49-17.9-62.5.9-87.6,3.8-4.74,7.22-10.37,13.02-12.89,12.13-5.03,25.06-8.05,38.16-9.06ZM119.68,98.7l-.37-.38c-6.78,20.51-.26,44.27,15.36,58.99,12.46,11.5,30,18.01,46.96,15.43,18.26-2.37,35.25-13.92,43.57-30.44,8.25-15.19,9.78-35.07.89-50.29-9.92-22.91-36.47-37.28-61.05-32.68-21,3.3-38.77,19.3-45.36,39.37Z"/>
    <path class="cls-1" d="M177.76,119.7c10.52-13.51,19.32-28.28,29.96-41.7,2.54,2.37,10.19,4.16,7.04,8.7-6.84,10.21-14.31,20.01-20.97,30.34-6.67,9.88-13.36,19.76-20.53,29.27-2.31,3.62-7.48,4.18-10.21.71-7.22-8.15-14.72-16.12-21.57-24.57-2.6-2.75-.35-6.2,2.15-8,1.04-.82,2.11-1.61,3.18-2.4,1.85,1.77,3.74,3.52,5.54,5.34,5.53,5.08,8.67,12.93,15.91,15.93,3.25-4.48,6.24-9.15,9.5-13.62Z"/>
    <g>
      <path class="cls-2" d="M226.09,92.01c8.89,15.22,7.36,35.1-.89,50.29-8.32,16.52-25.31,28.07-43.57,30.44-16.96,2.58-34.5-3.93-46.96-15.43-15.62-14.72-22.14-38.48-15.36-58.99l.37.38c6.34,7.42,14.7,12.72,23.95,15.75-2.5,1.8-4.75,5.25-2.15,8,6.85,8.45,14.35,16.42,21.57,24.57,2.73,3.47,7.9,2.91,10.21-.71,7.17-9.51,13.86-19.39,20.53-29.27,13.37-1.68,25.93-8.16,35.17-17.95-.93-2.37-1.85-4.75-2.87-7.08Z"/>
      <path class="cls-2" d="M152.35,117.39c8.48.7,16.9,2.1,25.41,2.31-3.26,4.47-6.25,9.14-9.5,13.62-7.24-3-10.38-10.85-15.91-15.93Z"/>
    </g>
  </g>
  <g>
    <path class="cls-3" d="M236.36,82.37c-3.11,2.97-6.19,5.91-9.46,9.04-10.41-7.05-21.76-11.94-34.23-14.28-45.76-8.61-90.96,22.39-99.59,68.4-8.73,46.6,22.27,92.4,68.56,100.17,35.69,5.99,65.3-5.72,85.95-35.38,20.38-29.28,21.05-60.64,3.71-91.95-2.22-4-1.99-6.53,1.08-9.42,1.68-1.58,3.16-3.38,4.75-5.11,24.28,29.63,30.16,87.92-9.97,127.88-37.85,37.69-99.01,38.4-137.84,1.69-38.78-36.67-41.41-98.22-5.88-137.69,37.25-41.38,96.46-41.68,132.91-13.34Z"/>
    <path class="cls-3" d="M153.45,133.41c2.44,1.32,7.41,2.91,10.81,6.14,4.63,4.41,8.32,9.91,11.94,15.26,3.9,5.76,4.67,5.99,8.44.33,16.4-24.61,34.3-48,55.34-68.89,12.32-12.23,26.63-21.58,42.12-29.24,1.19-.59,2.43-1.29,3.71-1.44,1.17-.14,3.25.07,3.47.67.41,1.13.22,2.97-.5,3.92-1.82,2.36-4.06,4.41-6.16,6.55-30.53,31.12-56.79,65.4-77.3,103.98-5.24,9.85-10.92,19.47-16.21,29.31-2.54,4.73-6.13,7.51-11.55,7.15-5.17-.35-8.42-3.41-10.42-8.12-4.93-11.65-9.9-23.29-15.07-34.84-1.56-3.47-3.34-7.09-5.92-9.78-2.48-2.58-5.9-4.79-9.31-5.81-3.77-1.13-4.38-2.65-2.58-5.6,3.79-6.19,9.57-9,19.18-9.57Z"/>
  </g>
  <g>
    <path class="cls-3" d="M346.87,142.14v-55.27h23.92c4.95,0,9.21.8,12.79,2.41,3.58,1.61,6.34,3.91,8.29,6.91,1.95,3,2.92,6.55,2.92,10.66s-.97,7.73-2.92,10.7c-1.95,2.97-4.71,5.24-8.29,6.79-3.58,1.55-7.84,2.33-12.79,2.33h-16.9l5.84-5.53v21h-12.87ZM359.74,122.56l-5.84-6.08h16.19c3.89,0,6.84-.84,8.84-2.53,2-1.68,3-4.05,3-7.11s-1-5.41-3-7.07c-2-1.66-4.95-2.49-8.84-2.49h-16.19l5.84-6.08v31.34ZM382.08,142.14l-13.9-20.05h13.74l13.9,20.05h-13.74Z"/>
    <path class="cls-3" d="M404.9,142.14v-55.27h12.87v55.27h-12.87Z"/>
    <path class="cls-3" d="M457.48,143.08c-4.37,0-8.4-.7-12.08-2.09-3.68-1.39-6.87-3.38-9.55-5.96-2.68-2.58-4.78-5.61-6.28-9.08-1.5-3.47-2.25-7.29-2.25-11.45s.75-7.97,2.25-11.45,3.62-6.5,6.36-9.08c2.74-2.58,5.95-4.57,9.63-5.96,3.68-1.39,7.74-2.09,12.16-2.09,4.9,0,9.3.82,13.22,2.45,3.92,1.63,7.22,4,9.91,7.11l-8.13,7.58c-2.05-2.16-4.26-3.75-6.63-4.78-2.37-1.03-4.97-1.54-7.82-1.54-2.63,0-5.05.43-7.26,1.3-2.21.87-4.12,2.09-5.72,3.67-1.61,1.58-2.84,3.45-3.71,5.61-.87,2.16-1.3,4.55-1.3,7.18s.43,4.88,1.3,7.07c.87,2.19,2.1,4.07,3.71,5.65,1.6,1.58,3.5,2.82,5.68,3.71,2.18.9,4.59,1.34,7.22,1.34s4.99-.42,7.38-1.26c2.39-.84,4.72-2.24,6.99-4.18l7.26,9.24c-3.05,2.32-6.55,4.07-10.5,5.25-3.95,1.18-7.9,1.78-11.84,1.78ZM468.14,134.4v-20.76h11.68v22.42l-11.68-1.66Z"/>
    <path class="cls-3" d="M504.53,142.14h-12.87v-55.27h12.87v55.27ZM530.51,119.48h-27v-10.82h27v10.82ZM529.56,86.87h12.79v55.27h-12.79v-55.27Z"/>
    <path class="cls-3" d="M566.9,142.14v-44.84h-17.69v-10.42h48.16v10.42h-17.68v44.84h-12.79Z"/>
    <path class="cls-4" d="M639.46,142.14h-12.87v-55.27h41.76v10.26h-28.9v45ZM638.43,111.74h26.53v10.26h-26.53v-10.26Z"/>
    <path class="cls-4" d="M677.04,142.14v-55.27h12.87v55.27h-12.87Z"/>
    <path class="cls-4" d="M702.94,142.14v-55.27h23.92c4.95,0,9.21.8,12.79,2.41,3.58,1.61,6.34,3.91,8.29,6.91,1.95,3,2.92,6.55,2.92,10.66s-.97,7.73-2.92,10.7c-1.95,2.97-4.71,5.24-8.29,6.79-3.58,1.55-7.84,2.33-12.79,2.33h-16.9l5.84-5.53v21h-12.87ZM715.81,122.56l-5.84-6.08h16.19c3.89,0,6.84-.84,8.84-2.53,2-1.68,3-4.05,3-7.11s-1-5.41-3-7.07c-2-1.66-4.95-2.49-8.84-2.49h-16.19l5.84-6.08v31.34ZM738.15,142.14l-13.9-20.05h13.74l13.89,20.05h-13.74Z"/>
    <path class="cls-4" d="M779.2,143.08c-4.42,0-8.67-.59-12.75-1.78-4.08-1.18-7.36-2.72-9.83-4.62l4.34-9.63c2.32,1.69,5.1,3.07,8.37,4.15,3.26,1.08,6.55,1.62,9.87,1.62,2.53,0,4.57-.26,6.12-.79,1.55-.53,2.7-1.22,3.43-2.09.74-.87,1.11-1.88,1.11-3.04,0-1.47-.58-2.65-1.74-3.51-1.16-.87-2.7-1.58-4.62-2.13-1.92-.55-4.01-1.08-6.28-1.58-2.26-.5-4.54-1.11-6.83-1.82-2.29-.71-4.4-1.66-6.32-2.84-1.92-1.18-3.45-2.74-4.58-4.66-1.13-1.92-1.7-4.33-1.7-7.22,0-3.16.84-6.04,2.53-8.65,1.68-2.6,4.25-4.68,7.7-6.24,3.45-1.55,7.78-2.33,12.99-2.33,3.47,0,6.91.42,10.3,1.26,3.4.84,6.36,2.05,8.88,3.63l-4.03,9.63c-2.47-1.42-5.03-2.49-7.66-3.2-2.63-.71-5.16-1.07-7.58-1.07s-4.55.28-6.08.83c-1.53.55-2.64,1.3-3.36,2.25-.71.95-1.07,2-1.07,3.16,0,1.47.58,2.66,1.74,3.55,1.16.9,2.68,1.59,4.58,2.09,1.9.5,4,1,6.32,1.5,2.32.5,4.6,1.12,6.87,1.86,2.26.74,4.34,1.67,6.24,2.8,1.9,1.13,3.43,2.66,4.62,4.58,1.18,1.92,1.78,4.3,1.78,7.15,0,3.11-.86,5.95-2.57,8.53-1.71,2.58-4.3,4.66-7.78,6.24-3.47,1.58-7.82,2.37-13.03,2.37Z"/>
    <path class="cls-4" d="M821.99,142.14v-44.84h-17.69v-10.42h48.16v10.42h-17.68v44.84h-12.79Z"/>
    <path class="cls-4" d="M893.13,142.14v-44.84h-17.69v-10.42h48.16v10.42h-17.68v44.84h-12.79Z"/>
    <path class="cls-4" d="M930.47,142.14v-55.27h12.87v55.27h-12.87Z"/>
    <path class="cls-4" d="M956.37,142.14v-55.27h10.58l23.53,39h-5.61l23.05-39h10.66v55.27h-11.92l-.16-36.87h2.37l-18.63,30.95h-5.68l-18.87-30.95h2.61v36.87h-11.92Z"/>
    <path class="cls-4" d="M1044.48,131.87h30.08v10.26h-42.79v-55.27h41.76v10.26h-29.05v34.74ZM1043.53,109.06h26.61v10.03h-26.61v-10.03Z"/>
  </g>
  <g class="cls-8">
    <g>
      <path class="cls-3" d="M480.23,76.28c4.81-.43,9.66-.06,14.49-.15,1.2,7.91.24,15.92.71,23.88,6.1-5.47,14.51-7.69,22.44-5.33,6.23,2.57,9.5,9.49,9.59,15.96.15,10.52.01,21.04.05,31.55-5.01.08-10.01.08-15.01.07-.16-9.56.14-19.12-.14-28.67-.02-3.49-1.94-7-5.33-8.23-5.71-1.34-11.15,3.75-11.54,9.3-.67,9.18.47,18.43-.65,27.59-4.92-.07-9.84.25-14.75-.12-1.1-17.06-.14-34.34-.46-51.49.32-4.74-.78-9.82.6-14.36Z"/>
      <path class="cls-3" d="M388.3,88.75c-.07-4.23-.06-8.45.13-12.68,4.6.14,9.2-.18,13.79.16,2.56,3.2.7,8.05,1.3,11.93-4.96,1.44-10.15.82-15.22.59Z"/>
      <path class="cls-3" d="M321.62,79.24c13.35.71,27.38-2.15,40.21,2.54,12.98,5.33,11.36,26.69-1.89,30.8,9.94,6.95,13.02,19.42,18.5,29.62-5.63.1-11.26.02-16.9.12-4.05-6.53-6.31-14.1-11-20.22-2.82-3.94-8.04-2.94-12.22-3.21-1.43,7.73-.31,15.62-.73,23.42-5.35-.05-10.69-.05-16.03-.07,0-21-.12-42,.06-63ZM337.8,105.69c2.42,2.66,6.96,1.1,10.23,1.09,6.59-.6,8.75-9.92,3.93-13.94-3.96-2.76-9.13-1.42-13.64-1.81-.98,4.81-.95,9.78-.52,14.66Z"/>
      <path class="cls-3" d="M543.17,82.06c4.97-1.28,10.16-.66,15.18.07-.04,4.33-.02,8.66.11,12.99,5.02,0,10.05,0,15.08.01.04,3.67.04,7.33,0,11-5.04,0-10.08.01-15.12,0,.18,7.8-.77,15.74.44,23.44,3.47,3.27,9.38.69,13.74,2.42-.1,3.39-.12,6.78-.13,10.17-6.17.03-12.36.36-18.51-.12-5.32-.46-9.92-4.82-10.59-10.13-1.43-8.52-.19-17.22-.83-25.81-2.38.01-4.75.01-7.13.03-.03-3.67-.03-7.33-.01-10.99,2.37,0,4.73-.01,7.11.01.41-4.35-.35-8.83.66-13.09Z"/>
      <path class="cls-3" d="M425.67,95.38c8.02-3.34,18.07-1.64,23.73,5.29.09-1.83.18-3.66.28-5.49,4.92-.07,9.85-.06,14.77-.11,1.07,8.84,1.07,17.73.25,26.59-.42,10.93,3,24.21-5.94,32.74-10.56,9.17-26.87,8.44-39.21,3.58-.05-3.72-.01-7.45.54-11.14,7.35,3.84,16.65,6.52,24.43,2.33,4.82-2.78,5.48-8.71,5.05-13.73-7.87,9.33-24.31,9.49-30.98-1.31-7.61-11.78-6.14-31.43,7.08-38.75ZM434.47,106.08c-8.73,6.63-6.18,27.47,7.19,25.1,8.76-1.87,9.21-13.37,6.95-20.32-1.66-5.98-9.26-7.55-14.14-4.78Z"/>
      <path class="cls-3" d="M388.29,142.24c.08-15.71-.18-31.44.12-47.15,4.93.13,9.89-.29,14.81.33.56,15.53,0,31.11.26,46.66-5.06.27-10.13.2-15.19.16Z"/>
    </g>
    <g>
      <path class="cls-1" d="M672.55,76.16c5.24-.13,10.48-.15,15.72.04.16,4.28.24,8.6-.53,12.83-5.04.02-10.08.05-15.11-.05-.14-4.27-.14-8.55-.08-12.82Z"/>
      <path class="cls-1" d="M928.37,76.1c5-.06,9.99-.07,14.99.06.03,4.04.03,8.07.05,12.1-4.96,1.18-10.11,1-15.13.41-.05-4.19-.01-8.38.09-12.57Z"/>
      <path class="cls-1" d="M861.89,79.14c19.51.01,39.03-.11,58.55.06.07,3.97.08,7.93.02,11.9-6.98.15-13.97.01-20.94.14-.23,17.22.16,34.44-.21,51.65-5.53.11-11.05.11-16.57-.02-.28-17.22.04-34.45-.16-51.68-6.89-.03-13.78.03-20.67-.05-.38-3.99-.4-8.01-.02-12Z"/>
      <path class="cls-1" d="M613.74,106.64c.3-9.17-.69-18.42.64-27.54,14.65.09,29.3-.1,43.95.1.12,3.95.12,7.9.08,11.85-9.26.31-18.53-.03-27.8.21-.08,3.95-.1,7.9-.15,11.85,8.66,1.18,17.42.63,26.13.84.06,4.01.05,8.02-.13,12.03-8.64.08-17.29-.11-25.93.15-.11,8.93.16,17.86-.17,26.78-5.29.06-10.59.07-15.87.05-1.6-12.02-.36-24.22-.75-36.32Z"/>
      <path class="cls-1" d="M799.43,82.06c4.65-1.64,10.12-.55,15.03-.05-.05,4.33-.03,8.66.14,12.99,4.99.04,9.99.06,14.98.04.91,3.69.86,7.49-.06,11.17-4.99,0-9.98,0-14.96.02-.17,7.91-.2,15.82.03,23.72,4.46,1.66,9.25,1.26,13.91,1.27.13,3.69.14,7.39.11,11.09-6.92,1.18-14.11,1.01-20.93-.69-4.92-1.23-8.08-6.08-8.56-10.94-.94-8.1-.04-16.29-.55-24.42-2.38-.04-4.77-.1-7.14-.14-.08-3.67-.07-7.33,0-11,2.38-.04,4.78-.09,7.17-.11.47-4.25-.76-9.06.83-12.95Z"/>
      <path class="cls-1" d="M718.53,99.95c4.92-4.47,11.24-7.51,18.05-6.78.59.62,1.19,1.24,1.8,1.86,0,3.81.01,7.62.01,11.43-5.07-.58-10.87-2.43-15.32,1.1-9.83,8.98-1.37,24.31-5.94,35.11-4.84.71-9.78.35-14.61-.25.03-15.76-.02-31.52.04-47.28,5.21-.15,10.42-.17,15.64.02.09,1.6.2,3.2.33,4.79Z"/>
      <path class="cls-1" d="M749.86,95.8c10.39-4.42,22.16-2.5,32.74.17.02,3.84.02,7.68-.02,11.52-8.38-2.12-18.11-6.24-26.2-1.25.02.94.05,2.84.07,3.78,8.07,3.93,18.25,1.83,25.53,7.75,7.76,7.91,3.56,23.76-8.06,25.27-10.06,2.52-20.61.76-30.46-1.9-.12-4-.11-8.01.08-12.01,7.48,3.6,16.02,5.43,24.25,3.77,3.26-.59,2.9-4.13,3.06-6.65-7.12-3.25-15.52-2.01-22.4-5.97-8.84-5.09-7.96-20.42,1.41-24.48Z"/>
      <path class="cls-1" d="M973.63,99.62c4.22-3.13,8.82-6.62,14.37-6.43,5.77-.07,10.56,3.69,14.23,7.77,6.23-6.57,16.64-10.76,24.86-5.16,5.21,3.35,7.45,9.84,7.49,15.8.01,10.31.04,20.62-.04,30.92-4.97.67-9.98.46-14.97.43-.81-9.99.2-20.04-.53-30.03-.13-3.22-1.58-6.8-5.05-7.57-5.53-.58-9.77,5.12-9.56,10.28-.15,8.68-.18,17.37.02,26.05-4.92,2.39-10.55.94-15.79,1.22-.36-9.76.05-19.54-.21-29.31-.05-3.45-1.37-7.93-5.44-8.24-5.64-.38-9.14,5.3-9.44,10.31-.42,9.07.1,18.17-.27,27.25-4.63.05-9.26.04-13.88.06-.62-.56-1.23-1.11-1.82-1.67.05-15.37-.02-30.74.02-46.11,5.19-.22,10.38-.21,15.57-.06.13,1.5.28,2.99.44,4.49Z"/>
      <path class="cls-1" d="M1057.56,96.47c10.48-5.28,24.9-4.51,33.03,4.63,5.38,5.86,6.53,14.17,5.84,21.82-11.8.16-23.61-.1-35.41.14.64,5.33,4.81,10.33,10.48,10.31,8.02,1.04,15.49-2.26,22.93-4.67.07,3.97.06,7.94-.09,11.9-11.61,3.24-24.65,6.02-36.09.77-17.25-7.79-17.42-36.47-.69-44.9ZM1061.08,113.03c6.58.19,13.17.15,19.77.02-.31-5.03-4.45-9.98-9.88-9.06-5.28-.34-8.94,4.3-9.89,9.04Z"/>
      <path class="cls-1" d="M927.67,95.21c5.22-.24,10.45-.23,15.67-.05.05,15.9.2,31.81-.08,47.71-5.21.12-10.47.47-15.6-.65-.04-15.67-.02-31.34.01-47.01Z"/>
      <path class="cls-1" d="M672.56,95.14c5.01-.1,10.03-.1,15.05-.13,1.42,15.4.65,31.03.46,46.48-4.38,2.93-10.57,1.24-15.58.64.11-15.66-.01-31.33.07-46.99Z"/>
    </g>
  </g>
  <text class="cls-7" transform="translate(497.73 271.36)"><tspan x="0" y="0">“Done right. The frst time”</tspan></text>
</svg>